<mxfile host="65bd71144e">
    <diagram id="bX7EOOADEytLh77N1e9f" name="Page-1">
        <mxGraphModel dx="1048" dy="849" grid="1" gridSize="10" guides="1" tooltips="1" connect="1" arrows="1" fold="1" page="1" pageScale="1" pageWidth="850" pageHeight="1100" math="0" shadow="0">
            <root>
                <mxCell id="0"/>
                <mxCell id="1" parent="0"/>
                <mxCell id="7" value="" style="edgeStyle=none;html=1;" parent="1" source="3" target="6" edge="1">
                    <mxGeometry relative="1" as="geometry"/>
                </mxCell>
                <mxCell id="3" value="Opening contract for user&amp;nbsp;&lt;b&gt;funding&lt;/b&gt;, only in stNEAR." style="whiteSpace=wrap;html=1;" parent="1" vertex="1">
                    <mxGeometry x="320" y="190" width="120" height="60" as="geometry"/>
                </mxCell>
                <mxCell id="9" value="No" style="edgeStyle=none;html=1;" parent="1" source="6" target="8" edge="1">
                    <mxGeometry relative="1" as="geometry"/>
                </mxCell>
                <mxCell id="11" value="Yes" style="edgeStyle=none;html=1;" parent="1" source="6" target="10" edge="1">
                    <mxGeometry relative="1" as="geometry"/>
                </mxCell>
                <mxCell id="13" value="" style="edgeStyle=none;html=1;entryX=0.5;entryY=0;entryDx=0;entryDy=0;" parent="1" source="6" target="12" edge="1">
                    <mxGeometry relative="1" as="geometry">
                        <mxPoint x="200" y="440" as="targetPoint"/>
                        <Array as="points">
                            <mxPoint x="380" y="470"/>
                            <mxPoint x="200" y="470"/>
                        </Array>
                    </mxGeometry>
                </mxCell>
                <mxCell id="15" value="" style="edgeStyle=none;html=1;entryX=0.5;entryY=0;entryDx=0;entryDy=0;" parent="1" source="6" target="14" edge="1">
                    <mxGeometry relative="1" as="geometry">
                        <Array as="points">
                            <mxPoint x="380" y="470"/>
                            <mxPoint x="560" y="470"/>
                        </Array>
                    </mxGeometry>
                </mxCell>
                <mxCell id="6" value="Goal reached?" style="rhombus;whiteSpace=wrap;html=1;" parent="1" vertex="1">
                    <mxGeometry x="340" y="320" width="80" height="80" as="geometry"/>
                </mxCell>
                <mxCell id="8" value="&lt;b&gt;Unsuccessful!&lt;br&gt;&lt;/b&gt;Freeing stNEAR to the users. And the rewards for the Kickstarter." style="whiteSpace=wrap;html=1;" parent="1" vertex="1">
                    <mxGeometry x="480" y="327.5" width="140" height="65" as="geometry"/>
                </mxCell>
                <mxCell id="32" value="" style="edgeStyle=none;html=1;" parent="1" source="10" target="31" edge="1">
                    <mxGeometry relative="1" as="geometry"/>
                </mxCell>
                <mxCell id="10" value="&lt;b&gt;IOU Rewards:&lt;/b&gt;&lt;br&gt;- $TOKEN_X&lt;br&gt;- Cliff and linear release" style="whiteSpace=wrap;html=1;" parent="1" vertex="1">
                    <mxGeometry x="320" y="490" width="120" height="80" as="geometry"/>
                </mxCell>
                <mxCell id="30" value="" style="edgeStyle=none;html=1;" parent="1" source="12" target="29" edge="1">
                    <mxGeometry relative="1" as="geometry"/>
                </mxCell>
                <mxCell id="12" value="&lt;b&gt;Near IOU:&lt;/b&gt;&lt;br&gt;- User_owner&lt;br&gt;- Kickstarter&lt;br&gt;- NEAR value&lt;br&gt;- Unlocking date" style="whiteSpace=wrap;html=1;" parent="1" vertex="1">
                    <mxGeometry x="140" y="490" width="120" height="80" as="geometry"/>
                </mxCell>
                <mxCell id="17" value="" style="edgeStyle=none;html=1;" parent="1" source="14" target="16" edge="1">
                    <mxGeometry relative="1" as="geometry"/>
                </mxCell>
                <mxCell id="14" value="&lt;b&gt;Katherine Heartbeat:&lt;br&gt;&lt;/b&gt;Keep track of the stNEAR price in NEAR" style="whiteSpace=wrap;html=1;" parent="1" vertex="1">
                    <mxGeometry x="485" y="490" width="150" height="80" as="geometry"/>
                </mxCell>
                <mxCell id="34" value="" style="edgeStyle=none;html=1;" parent="1" source="16" target="33" edge="1">
                    <mxGeometry relative="1" as="geometry"/>
                </mxCell>
                <mxCell id="16" value="stNEAR Vault:&lt;br&gt;- Freeing stNEAR." style="whiteSpace=wrap;html=1;" parent="1" vertex="1">
                    <mxGeometry x="500" y="660" width="120" height="60" as="geometry"/>
                </mxCell>
                <mxCell id="22" value="" style="edgeStyle=none;html=1;" parent="1" source="18" target="16" edge="1">
                    <mxGeometry relative="1" as="geometry"/>
                </mxCell>
                <mxCell id="23" value="Pull Funds" style="edgeLabel;html=1;align=center;verticalAlign=middle;resizable=0;points=[];" parent="22" vertex="1" connectable="0">
                    <mxGeometry x="-0.3274" y="2" relative="1" as="geometry">
                        <mxPoint as="offset"/>
                    </mxGeometry>
                </mxCell>
                <mxCell id="18" value="Kickstarter" style="aspect=fixed;html=1;points=[];align=center;image;fontSize=12;image=img/lib/azure2/azure_stack/User_Subscriptions.svg;" parent="1" vertex="1">
                    <mxGeometry x="700" y="657" width="68" height="66" as="geometry"/>
                </mxCell>
                <mxCell id="27" value="" style="edgeStyle=none;html=1;dashed=1;dashPattern=1 1;shape=link;" parent="1" source="25" edge="1">
                    <mxGeometry relative="1" as="geometry">
                        <mxPoint x="690" y="277" as="targetPoint"/>
                    </mxGeometry>
                </mxCell>
                <mxCell id="25" value="Locking Date" style="sketch=0;pointerEvents=1;shadow=0;dashed=0;html=1;strokeColor=none;fillColor=#505050;labelPosition=center;verticalLabelPosition=bottom;verticalAlign=top;outlineConnect=0;align=center;shape=mxgraph.office.security.lock_protected;" parent="1" vertex="1">
                    <mxGeometry x="75" y="258" width="28" height="37" as="geometry"/>
                </mxCell>
                <mxCell id="28" value="" style="edgeStyle=none;html=1;dashed=1;dashPattern=1 1;shape=link;" parent="1" edge="1">
                    <mxGeometry relative="1" as="geometry">
                        <mxPoint x="103" y="750.0016472545757" as="sourcePoint"/>
                        <mxPoint x="690" y="750.49" as="targetPoint"/>
                    </mxGeometry>
                </mxCell>
                <mxCell id="24" value="Unlocking Date" style="sketch=0;pointerEvents=1;shadow=0;dashed=0;html=1;strokeColor=none;fillColor=#505050;labelPosition=center;verticalLabelPosition=bottom;verticalAlign=top;outlineConnect=0;align=center;shape=mxgraph.office.security.lock_unprotected;" parent="1" vertex="1">
                    <mxGeometry x="70" y="710" width="38" height="55" as="geometry"/>
                </mxCell>
                <mxCell id="29" value="&lt;b&gt;Pay IOU Options:&lt;br&gt;&lt;/b&gt;- get stNEAR&lt;br&gt;- Liquid-Unstake&lt;br&gt;- Delayed-Unstake" style="whiteSpace=wrap;html=1;" parent="1" vertex="1">
                    <mxGeometry x="140" y="780" width="120" height="60" as="geometry"/>
                </mxCell>
                <mxCell id="31" value="Deliver IOU Rewards minus Katherine Fee" style="whiteSpace=wrap;html=1;" parent="1" vertex="1">
                    <mxGeometry x="320" y="780" width="120" height="60" as="geometry"/>
                </mxCell>
                <mxCell id="33" value="Remaining stNear must cover ALL responsibilities IOU." style="whiteSpace=wrap;html=1;" parent="1" vertex="1">
                    <mxGeometry x="500" y="780" width="120" height="60" as="geometry"/>
                </mxCell>
                <mxCell id="37" value="" style="edgeStyle=none;html=1;" parent="1" source="35" target="3" edge="1">
                    <mxGeometry relative="1" as="geometry"/>
                </mxCell>
                <mxCell id="35" value="Kickstarter &lt;b&gt;create&lt;/b&gt;&amp;nbsp;goals, and reward parameters." style="whiteSpace=wrap;html=1;" parent="1" vertex="1">
                    <mxGeometry x="320" y="50" width="120" height="60" as="geometry"/>
                </mxCell>
                <mxCell id="38" value="" style="edgeStyle=none;html=1;dashed=1;dashPattern=1 1;shape=link;" parent="1" edge="1">
                    <mxGeometry relative="1" as="geometry">
                        <mxPoint x="690" y="170.49" as="targetPoint"/>
                        <mxPoint x="103" y="170.0016472545757" as="sourcePoint"/>
                    </mxGeometry>
                </mxCell>
                <mxCell id="40" value="Funding period" style="fillColor=#28A8E0;verticalLabelPosition=bottom;sketch=0;html=1;strokeColor=#ffffff;verticalAlign=top;align=center;points=[[0.145,0.145,0],[0.5,0,0],[0.855,0.145,0],[1,0.5,0],[0.855,0.855,0],[0.5,1,0],[0.145,0.855,0],[0,0.5,0]];pointerEvents=1;shape=mxgraph.cisco_safe.compositeIcon;bgIcon=ellipse;resIcon=mxgraph.cisco_safe.capability.time_synchronization;" parent="1" vertex="1">
                    <mxGeometry x="65" y="147" width="43" height="43" as="geometry"/>
                </mxCell>
                <mxCell id="43" value="&lt;font style=&quot;font-size: 16px&quot;&gt;&lt;b&gt;Ticket System for Near IOU:&lt;/b&gt;&lt;/font&gt;" style="text;html=1;strokeColor=none;fillColor=none;align=center;verticalAlign=middle;whiteSpace=wrap;rounded=0;" vertex="1" parent="1">
                    <mxGeometry x="27" y="950" width="220" height="30" as="geometry"/>
                </mxCell>
                <mxCell id="44" value="Kickstarter" style="aspect=fixed;html=1;points=[];align=center;image;fontSize=12;image=img/lib/azure2/azure_stack/User_Subscriptions.svg;" vertex="1" parent="1">
                    <mxGeometry x="50" y="1072.5" width="68" height="66" as="geometry"/>
                </mxCell>
                <mxCell id="45" value="&lt;font style=&quot;font-size: 13px&quot;&gt;Tx 1&lt;/font&gt;" style="shape=card;whiteSpace=wrap;html=1;fontSize=16;size=20;" vertex="1" parent="1">
                    <mxGeometry x="130" y="1072.5" width="40" height="40" as="geometry"/>
                </mxCell>
                <mxCell id="46" value="&lt;font style=&quot;font-size: 13px&quot;&gt;Tx 2&lt;/font&gt;" style="shape=card;whiteSpace=wrap;html=1;fontSize=16;size=20;" vertex="1" parent="1">
                    <mxGeometry x="190" y="1072.5" width="40" height="40" as="geometry"/>
                </mxCell>
                <mxCell id="47" value="&lt;font style=&quot;font-size: 13px&quot;&gt;Tx n&lt;/font&gt;" style="shape=card;whiteSpace=wrap;html=1;fontSize=16;size=20;" vertex="1" parent="1">
                    <mxGeometry x="280" y="1071" width="40" height="40" as="geometry"/>
                </mxCell>
                <mxCell id="48" value="&lt;font style=&quot;font-size: 12px&quot;&gt;Tx:&lt;br&gt;- Total stNEAR&lt;br&gt;- Spot NEAR&lt;/font&gt;" style="shape=card;whiteSpace=wrap;html=1;fontSize=13;size=20;" vertex="1" parent="1">
                    <mxGeometry x="273" y="980" width="90" height="64" as="geometry"/>
                </mxCell>
                <mxCell id="49" value="Katherine" style="aspect=fixed;perimeter=ellipsePerimeter;html=1;align=center;shadow=0;dashed=0;fontColor=#FFFFFF;labelBackgroundColor=#ffffff;fontSize=12;spacingTop=3;image;image=img/lib/ibm/blockchain/smart_contract.svg;" vertex="1" parent="1">
                    <mxGeometry x="608" y="1032.5" width="60" height="60" as="geometry"/>
                </mxCell>
                <mxCell id="89" value="T + 1" style="edgeStyle=none;html=1;fontSize=10;fontColor=#FFFFFF;" edge="1" parent="1" source="50" target="88">
                    <mxGeometry relative="1" as="geometry"/>
                </mxCell>
                <mxCell id="50" value="stNEAR price in NEAR&amp;nbsp;&lt;br&gt;&lt;font style=&quot;font-size: 10px&quot;&gt;(&lt;font style=&quot;font-size: 10px&quot;&gt;eg 1 stNEAR = 1.2 NEAR&lt;/font&gt;)&lt;/font&gt;" style="whiteSpace=wrap;html=1;fontSize=12;fontColor=#FFFFFF;" vertex="1" parent="1">
                    <mxGeometry x="684" y="1022.5" width="136" height="80" as="geometry"/>
                </mxCell>
                <mxCell id="64" value="Table" style="shape=table;startSize=30;container=1;collapsible=1;childLayout=tableLayout;fixedRows=1;rowLines=0;fontStyle=1;align=center;resizeLast=1;fontSize=12;fontColor=#FFFFFF;" vertex="1" parent="1">
                    <mxGeometry x="400" y="1012.5" width="180" height="160" as="geometry">
                        <mxRectangle x="390" y="900" width="60" height="30" as="alternateBounds"/>
                    </mxGeometry>
                </mxCell>
                <mxCell id="65" value="" style="shape=partialRectangle;collapsible=0;dropTarget=0;pointerEvents=0;fillColor=none;top=0;left=0;bottom=1;right=0;points=[[0,0.5],[1,0.5]];portConstraint=eastwest;fontSize=12;fontColor=#FFFFFF;" vertex="1" parent="64">
                    <mxGeometry y="30" width="180" height="30" as="geometry"/>
                </mxCell>
                <mxCell id="66" value="Total stNEAR" style="shape=partialRectangle;connectable=0;fillColor=none;top=0;left=0;bottom=0;right=0;fontStyle=1;overflow=hidden;fontSize=12;fontColor=#FFFFFF;" vertex="1" parent="65">
                    <mxGeometry width="90" height="30" as="geometry">
                        <mxRectangle width="90" height="30" as="alternateBounds"/>
                    </mxGeometry>
                </mxCell>
                <mxCell id="67" value="Spot Near" style="shape=partialRectangle;connectable=0;fillColor=none;top=0;left=0;bottom=0;right=0;align=left;spacingLeft=6;fontStyle=1;overflow=hidden;fontSize=12;fontColor=#FFFFFF;" vertex="1" parent="65">
                    <mxGeometry x="90" width="90" height="30" as="geometry">
                        <mxRectangle width="90" height="30" as="alternateBounds"/>
                    </mxGeometry>
                </mxCell>
                <mxCell id="68" value="" style="shape=partialRectangle;collapsible=0;dropTarget=0;pointerEvents=0;fillColor=none;top=0;left=0;bottom=0;right=0;points=[[0,0.5],[1,0.5]];portConstraint=eastwest;fontSize=12;fontColor=#FFFFFF;" vertex="1" parent="64">
                    <mxGeometry y="60" width="180" height="30" as="geometry"/>
                </mxCell>
                <mxCell id="69" value="3 stNear" style="shape=partialRectangle;connectable=0;fillColor=none;top=0;left=0;bottom=0;right=0;editable=1;overflow=hidden;fontSize=12;fontColor=#FFFFFF;" vertex="1" parent="68">
                    <mxGeometry width="90" height="30" as="geometry">
                        <mxRectangle width="90" height="30" as="alternateBounds"/>
                    </mxGeometry>
                </mxCell>
                <mxCell id="70" value="3.6 NEAR" style="shape=partialRectangle;connectable=0;fillColor=none;top=0;left=0;bottom=0;right=0;align=left;spacingLeft=6;overflow=hidden;fontSize=12;fontColor=#FFFFFF;" vertex="1" parent="68">
                    <mxGeometry x="90" width="90" height="30" as="geometry">
                        <mxRectangle width="90" height="30" as="alternateBounds"/>
                    </mxGeometry>
                </mxCell>
                <mxCell id="71" value="" style="shape=partialRectangle;collapsible=0;dropTarget=0;pointerEvents=0;fillColor=none;top=0;left=0;bottom=0;right=0;points=[[0,0.5],[1,0.5]];portConstraint=eastwest;fontSize=12;fontColor=#FFFFFF;" vertex="1" parent="64">
                    <mxGeometry y="90" width="180" height="30" as="geometry"/>
                </mxCell>
                <mxCell id="72" value="2 stNear" style="shape=partialRectangle;connectable=0;fillColor=none;top=0;left=0;bottom=0;right=0;editable=1;overflow=hidden;fontSize=12;fontColor=#FFFFFF;" vertex="1" parent="71">
                    <mxGeometry width="90" height="30" as="geometry">
                        <mxRectangle width="90" height="30" as="alternateBounds"/>
                    </mxGeometry>
                </mxCell>
                <mxCell id="73" value="2.4 NEAR" style="shape=partialRectangle;connectable=0;fillColor=none;top=0;left=0;bottom=0;right=0;align=left;spacingLeft=6;overflow=hidden;fontSize=12;fontColor=#FFFFFF;" vertex="1" parent="71">
                    <mxGeometry x="90" width="90" height="30" as="geometry">
                        <mxRectangle width="90" height="30" as="alternateBounds"/>
                    </mxGeometry>
                </mxCell>
                <mxCell id="74" value="" style="shape=partialRectangle;collapsible=0;dropTarget=0;pointerEvents=0;fillColor=none;top=0;left=0;bottom=0;right=0;points=[[0,0.5],[1,0.5]];portConstraint=eastwest;fontSize=12;fontColor=#FFFFFF;" vertex="1" parent="64">
                    <mxGeometry y="120" width="180" height="30" as="geometry"/>
                </mxCell>
                <mxCell id="75" value="1 stNear" style="shape=partialRectangle;connectable=0;fillColor=none;top=0;left=0;bottom=0;right=0;editable=1;overflow=hidden;fontSize=12;fontColor=#FFFFFF;" vertex="1" parent="74">
                    <mxGeometry width="90" height="30" as="geometry">
                        <mxRectangle width="90" height="30" as="alternateBounds"/>
                    </mxGeometry>
                </mxCell>
                <mxCell id="76" value="1.2 NEAR" style="shape=partialRectangle;connectable=0;fillColor=none;top=0;left=0;bottom=0;right=0;align=left;spacingLeft=6;overflow=hidden;fontSize=12;fontColor=#FFFFFF;" vertex="1" parent="74">
                    <mxGeometry x="90" width="90" height="30" as="geometry">
                        <mxRectangle width="90" height="30" as="alternateBounds"/>
                    </mxGeometry>
                </mxCell>
                <mxCell id="77" value="Heartbeat" style="verticalLabelPosition=bottom;html=1;verticalAlign=top;align=center;strokeColor=none;fillColor=#00BEF2;shape=mxgraph.azure.health_monitoring;fontSize=12;fontColor=#FFFFFF;" vertex="1" parent="1">
                    <mxGeometry x="613" y="1132.5" width="50" height="42.5" as="geometry"/>
                </mxCell>
                <mxCell id="78" value="" style="shape=ellipse;fillColor=#000000;strokeColor=none;html=1;sketch=0;fontSize=12;fontColor=#FFFFFF;" vertex="1" parent="1">
                    <mxGeometry x="240" y="1087.5" width="7" height="7" as="geometry"/>
                </mxCell>
                <mxCell id="79" value="" style="shape=ellipse;fillColor=#000000;strokeColor=none;html=1;sketch=0;fontSize=12;fontColor=#FFFFFF;" vertex="1" parent="1">
                    <mxGeometry x="253" y="1087.5" width="7" height="7" as="geometry"/>
                </mxCell>
                <mxCell id="80" value="" style="shape=ellipse;fillColor=#000000;strokeColor=none;html=1;sketch=0;fontSize=12;fontColor=#FFFFFF;" vertex="1" parent="1">
                    <mxGeometry x="266" y="1087.5" width="7" height="7" as="geometry"/>
                </mxCell>
                <mxCell id="82" value="Tx 1" style="text;html=1;strokeColor=none;fillColor=none;align=center;verticalAlign=middle;whiteSpace=wrap;rounded=0;fontSize=10;fontColor=#FFFFFF;fontStyle=1" vertex="1" parent="1">
                    <mxGeometry x="351" y="1072.5" width="60" height="30" as="geometry"/>
                </mxCell>
                <mxCell id="83" value="Tx 2" style="text;html=1;strokeColor=none;fillColor=none;align=center;verticalAlign=middle;whiteSpace=wrap;rounded=0;fontSize=10;fontColor=#FFFFFF;fontStyle=1" vertex="1" parent="1">
                    <mxGeometry x="351" y="1102.5" width="60" height="30" as="geometry"/>
                </mxCell>
                <mxCell id="84" value="Tx n" style="text;html=1;strokeColor=none;fillColor=none;align=center;verticalAlign=middle;whiteSpace=wrap;rounded=0;fontSize=10;fontColor=#FFFFFF;fontStyle=1" vertex="1" parent="1">
                    <mxGeometry x="351" y="1132.5" width="60" height="30" as="geometry"/>
                </mxCell>
                <mxCell id="85" value="" style="verticalLabelPosition=bottom;html=1;verticalAlign=top;align=center;strokeColor=none;fillColor=#00BEF2;shape=mxgraph.azure.scheduler;pointerEvents=1;fontSize=10;fontColor=#FFFFFF;" vertex="1" parent="1">
                    <mxGeometry x="788" y="1127.5" width="32" height="40" as="geometry"/>
                </mxCell>
                <mxCell id="96" value="" style="edgeStyle=none;html=1;fontSize=8;fontColor=#FFFFFF;" edge="1" parent="1" source="88" target="92">
                    <mxGeometry relative="1" as="geometry"/>
                </mxCell>
                <mxCell id="98" value="" style="edgeStyle=none;html=1;fontSize=8;fontColor=#FFFFFF;" edge="1" parent="1" source="88" target="97">
                    <mxGeometry relative="1" as="geometry"/>
                </mxCell>
                <mxCell id="99" value="&lt;font style=&quot;font-size: 10px&quot;&gt;T + 2&lt;/font&gt;" style="edgeLabel;html=1;align=center;verticalAlign=middle;resizable=0;points=[];fontSize=8;fontColor=#FFFFFF;" vertex="1" connectable="0" parent="98">
                    <mxGeometry x="-0.296" y="-2" relative="1" as="geometry">
                        <mxPoint as="offset"/>
                    </mxGeometry>
                </mxCell>
                <mxCell id="88" value="stNEAR price in NEAR&amp;nbsp;&lt;br&gt;&lt;font style=&quot;font-size: 10px&quot;&gt;(&lt;font style=&quot;font-size: 10px&quot;&gt;eg 1 stNEAR = 1.4 NEAR&lt;/font&gt;)&lt;/font&gt;" style="whiteSpace=wrap;html=1;fontSize=12;fontColor=#FFFFFF;" vertex="1" parent="1">
                    <mxGeometry x="684" y="1192.5" width="136" height="80" as="geometry"/>
                </mxCell>
                <mxCell id="95" value="" style="edgeStyle=none;html=1;fontSize=8;fontColor=#FFFFFF;" edge="1" parent="1" source="91" target="94">
                    <mxGeometry relative="1" as="geometry"/>
                </mxCell>
                <mxCell id="91" value="6 &lt;font style=&quot;font-size: 8px&quot;&gt;stNEAR&lt;/font&gt; * 1.4 = 8.4" style="rounded=0;whiteSpace=wrap;html=1;fontSize=10;fontColor=#FFFFFF;fillColor=none;" vertex="1" parent="1">
                    <mxGeometry x="400" y="1202.5" width="90" height="60" as="geometry"/>
                </mxCell>
                <mxCell id="92" value="7.2 NEAR" style="rounded=0;whiteSpace=wrap;html=1;fontSize=10;fontColor=#FFFFFF;fillColor=none;" vertex="1" parent="1">
                    <mxGeometry x="490" y="1202.5" width="90" height="60" as="geometry"/>
                </mxCell>
                <mxCell id="94" value="&lt;b&gt;stNEAR Vault:&lt;/b&gt;&lt;br&gt;8.4 NEAR - 7.2 NEAR = 1.2 NEAR&lt;br&gt;1.2 / 1.4 = 0.85 stNEAR available" style="rounded=0;whiteSpace=wrap;html=1;fontSize=10;fontColor=#FFFFFF;fillColor=none;" vertex="1" parent="1">
                    <mxGeometry x="39" y="1202.5" width="191" height="60" as="geometry"/>
                </mxCell>
                <mxCell id="106" value="" style="edgeStyle=none;html=1;fontSize=10;fontColor=#FFFFFF;" edge="1" parent="1" source="97" target="104">
                    <mxGeometry relative="1" as="geometry"/>
                </mxCell>
                <mxCell id="114" value="T + 3" style="edgeStyle=none;html=1;fontSize=10;fontColor=#FFFFFF;" edge="1" parent="1" source="97" target="113">
                    <mxGeometry relative="1" as="geometry"/>
                </mxCell>
                <mxCell id="97" value="stNEAR price in NEAR&amp;nbsp;&lt;br&gt;&lt;font style=&quot;font-size: 10px&quot;&gt;(&lt;font style=&quot;font-size: 10px&quot;&gt;eg 1 stNEAR = 1.6 NEAR&lt;/font&gt;)&lt;/font&gt;" style="whiteSpace=wrap;html=1;fontSize=12;fontColor=#FFFFFF;" vertex="1" parent="1">
                    <mxGeometry x="684" y="1332.5" width="136" height="80" as="geometry"/>
                </mxCell>
                <mxCell id="100" value="&lt;b&gt;stNEAR Vault:&lt;/b&gt;&lt;br&gt;9.6 NEAR - 7.2 NEAR = 2.4 NEAR&lt;br&gt;2.4 / 1.6 = 1.5 stNEAR available" style="rounded=0;whiteSpace=wrap;html=1;fontSize=10;fontColor=#FFFFFF;fillColor=none;" vertex="1" parent="1">
                    <mxGeometry x="39" y="1342.5" width="191" height="60" as="geometry"/>
                </mxCell>
                <mxCell id="102" value="6 &lt;font style=&quot;font-size: 8px&quot;&gt;stNEAR&lt;/font&gt; * 1.6 = 9.6" style="rounded=0;whiteSpace=wrap;html=1;fontSize=10;fontColor=#FFFFFF;fillColor=none;" vertex="1" parent="1">
                    <mxGeometry x="400" y="1342.5" width="90" height="60" as="geometry"/>
                </mxCell>
                <mxCell id="104" value="7.2 NEAR" style="rounded=0;whiteSpace=wrap;html=1;fontSize=10;fontColor=#FFFFFF;fillColor=none;" vertex="1" parent="1">
                    <mxGeometry x="490" y="1342.5" width="90" height="60" as="geometry"/>
                </mxCell>
                <mxCell id="107" value="" style="edgeStyle=none;html=1;fontSize=8;fontColor=#FFFFFF;" edge="1" parent="1">
                    <mxGeometry relative="1" as="geometry">
                        <mxPoint x="400" y="1371.97" as="sourcePoint"/>
                        <mxPoint x="230" y="1371.97" as="targetPoint"/>
                    </mxGeometry>
                </mxCell>
                <mxCell id="111" value="" style="edgeStyle=none;html=1;fontSize=10;fontColor=#FFFFFF;" edge="1" parent="1" source="108" target="109">
                    <mxGeometry relative="1" as="geometry"/>
                </mxCell>
                <mxCell id="108" value="Kickstarter" style="aspect=fixed;html=1;points=[];align=center;image;fontSize=12;image=img/lib/azure2/azure_stack/User_Subscriptions.svg;" vertex="1" parent="1">
                    <mxGeometry x="39" y="1422.5" width="68" height="66" as="geometry"/>
                </mxCell>
                <mxCell id="109" value="" style="sketch=0;outlineConnect=0;fontColor=#232F3E;gradientColor=none;fillColor=#3F8624;strokeColor=none;dashed=0;verticalLabelPosition=bottom;verticalAlign=top;align=center;html=1;fontSize=12;fontStyle=0;aspect=fixed;pointerEvents=1;shape=mxgraph.aws4.backup_vault;" vertex="1" parent="1">
                    <mxGeometry x="150" y="1425.5" width="60" height="60" as="geometry"/>
                </mxCell>
                <mxCell id="112" value="Kickstarter pulls the 1.5 stNear available from the Vault" style="rounded=0;whiteSpace=wrap;html=1;fontSize=10;fontColor=#FFFFFF;fillColor=none;" vertex="1" parent="1">
                    <mxGeometry x="221" y="1425.5" width="90" height="60" as="geometry"/>
                </mxCell>
                <mxCell id="119" value="" style="edgeStyle=none;html=1;fontSize=10;fontColor=#FFFFFF;" edge="1" parent="1" source="113" target="117">
                    <mxGeometry relative="1" as="geometry"/>
                </mxCell>
                <mxCell id="113" value="stNEAR price in NEAR&amp;nbsp;&lt;br&gt;&lt;font style=&quot;font-size: 10px&quot;&gt;(&lt;font style=&quot;font-size: 10px&quot;&gt;eg 1 stNEAR = 1.8 NEAR&lt;/font&gt;)&lt;/font&gt;" style="whiteSpace=wrap;html=1;fontSize=12;fontColor=#FFFFFF;" vertex="1" parent="1">
                    <mxGeometry x="684" y="1532.5" width="136" height="80" as="geometry"/>
                </mxCell>
                <mxCell id="115" value="&lt;b&gt;stNEAR Vault:&lt;/b&gt;&lt;br&gt;8.1 NEAR - 7.2 NEAR = 0.9 NEAR&lt;br&gt;0.9 / 1.8 = 0.5 stNEAR available" style="rounded=0;whiteSpace=wrap;html=1;fontSize=10;fontColor=#FFFFFF;fillColor=none;" vertex="1" parent="1">
                    <mxGeometry x="39" y="1542.5" width="191" height="60" as="geometry"/>
                </mxCell>
                <mxCell id="116" value="6 - 1.5&amp;nbsp;&lt;font style=&quot;font-size: 8px&quot;&gt;stNEAR&amp;nbsp;&lt;/font&gt;* 1.8 = 8.1" style="rounded=0;whiteSpace=wrap;html=1;fontSize=10;fontColor=#FFFFFF;fillColor=none;" vertex="1" parent="1">
                    <mxGeometry x="400" y="1542.5" width="90" height="60" as="geometry"/>
                </mxCell>
                <mxCell id="117" value="7.2 NEAR" style="rounded=0;whiteSpace=wrap;html=1;fontSize=10;fontColor=#FFFFFF;fillColor=none;" vertex="1" parent="1">
                    <mxGeometry x="490" y="1542.5" width="90" height="60" as="geometry"/>
                </mxCell>
                <mxCell id="118" value="" style="edgeStyle=none;html=1;fontSize=8;fontColor=#FFFFFF;" edge="1" parent="1">
                    <mxGeometry relative="1" as="geometry">
                        <mxPoint x="400" y="1571.97" as="sourcePoint"/>
                        <mxPoint x="230" y="1571.97" as="targetPoint"/>
                    </mxGeometry>
                </mxCell>
                <mxCell id="124" value="" style="edgeStyle=none;html=1;fontSize=10;fontColor=#FFFFFF;strokeColor=#CC0066;dashed=1;" edge="1" parent="1" source="123" target="43">
                    <mxGeometry relative="1" as="geometry">
                        <Array as="points">
                            <mxPoint x="200" y="910"/>
                            <mxPoint x="137" y="910"/>
                        </Array>
                    </mxGeometry>
                </mxCell>
                <mxCell id="123" value="" style="rounded=0;whiteSpace=wrap;html=1;fontSize=10;fontColor=#FFFFFF;fillColor=none;strokeColor=#CC0066;dashed=1;" vertex="1" parent="1">
                    <mxGeometry x="130" y="460" width="140" height="390" as="geometry"/>
                </mxCell>
            </root>
        </mxGraphModel>
    </diagram>
</mxfile>